replay
version=1
nRows=9
nColumns=40
inDegrees=no
endheader
time	/jointset/ground_pelvis/pelvis_tilt/value	/jointset/ground_pelvis/pelvis_list/value	/jointset/ground_pelvis/pelvis_rotation/value	/jointset/ground_pelvis/pelvis_tx/value	/jointset/ground_pelvis/pelvis_ty/value	/jointset/ground_pelvis/pelvis_tz/value	/jointset/hip_r/hip_flexion_r/value	/jointset/hip_r/hip_adduction_r/value	/jointset/hip_r/hip_rotation_r/value	/jointset/walker_knee_r/knee_angle_r/value	/jointset/patellofemoral_r/knee_angle_r_beta/value	/jointset/ankle_r/ankle_angle_r/value	/jointset/subtalar_r/subtalar_angle_r/value	/jointset/mtp_r/mtp_angle_r/value	/jointset/hip_l/hip_flexion_l/value	/jointset/hip_l/hip_adduction_l/value	/jointset/hip_l/hip_rotation_l/value	/jointset/walker_knee_l/knee_angle_l/value	/jointset/patellofemoral_l/knee_angle_l_beta/value	/jointset/ankle_l/ankle_angle_l/value	/jointset/subtalar_l/subtalar_angle_l/value	/jointset/mtp_l/mtp_angle_l/value	/jointset/back/lumbar_extension/value	/jointset/back/lumbar_bending/value	/jointset/back/lumbar_rotation/value	/jointset/acromial_r/arm_flex_r/value	/jointset/acromial_r/arm_add_r/value	/jointset/acromial_r/arm_rot_r/value	/jointset/elbow_r/elbow_flex_r/value	/jointset/radioulnar_r/pro_sup_r/value	/jointset/radius_hand_r/wrist_flex_r/value	/jointset/radius_hand_r/wrist_dev_r/value	/jointset/acromial_l/arm_flex_l/value	/jointset/acromial_l/arm_add_l/value	/jointset/acromial_l/arm_rot_l/value	/jointset/elbow_l/elbow_flex_l/value	/jointset/radioulnar_l/pro_sup_l/value	/jointset/radius_hand_l/wrist_flex_l/value	/jointset/radius_hand_l/wrist_dev_l/value
0.225	-0.1383126841	-0.1655732581	-0.3408068429	1.174189577	1.060591954	-0.09953462494	0.2198077451	0.1706696646	0.2423169594	0.1552284091	0.1552284091	-0.1275272194	-0.1449909777	1.892943127e-06	0.2080160494	-0.167258715	-0.153628054	0.1648591193	0.1648591193	-0.01183084221	-0.1263495466	9.338500714e-06	0.2449736343	0.9719432632	-0.8326827689	-0.7391227937	-1.288186493	-1.001858629	0.5398790214	0.180122501	0.5205831939	-0.7853083517	0.06256240825	0.6781297034	-1.002912043	1.64882777	0.1950538774	0.0001464800479	-1.673854235e-05
0.227777778	-0.1378788525	-0.1653858627	-0.3411963025	1.174235476	1.060924419	-0.09976854335	0.2195110972	0.1702392014	0.2426282644	0.155467022	0.155467022	-0.1274603609	-0.1449321593	1.807015274e-06	0.2078194377	-0.1667541748	-0.1537709663	0.164974359	0.164974359	-0.01171855049	-0.1263405381	8.444709822e-06	0.2448718804	0.9731864523	-0.833716457	-0.7393538792	-1.287131295	-1.00294169	0.5385348315	0.1801852787	0.5203035296	-0.7853498407	0.06260892008	0.6781367148	-1.003154733	1.648515309	0.1950048505	0.0001296643893	-1.16130323e-05
0.230555556	-0.137480997	-0.1651916832	-0.3416361599	1.174287897	1.061237141	-0.1000007678	0.2192217286	0.1698301339	0.2429243701	0.1556911999	0.1556911999	-0.1274213789	-0.1448946252	1.56523648e-06	0.2076331612	-0.1662514812	-0.1538924742	0.1651049831	0.1651049831	-0.01160753175	-0.1263126483	7.850179052e-06	0.2448002198	0.9744801631	-0.8347915418	-0.7395592779	-1.286100302	-1.003989526	0.5372550526	0.1803005675	0.5199974312	-0.7853323053	0.06266303048	0.6781472113	-1.003382515	1.648225215	0.1949560144	0.0001152453252	-9.389626397e-06
0.233333333	-0.1371243264	-0.1650072244	-0.3420798719	1.174347357	1.061524744	-0.1002366418	0.2189359046	0.1694423549	0.2430753455	0.1558842105	0.1558842105	-0.1274626907	-0.1448983106	1.223646947e-06	0.2074716185	-0.1657562934	-0.1538804698	0.1652503018	0.1652503018	-0.01144680932	-0.1262252206	8.323268303e-06	0.244834558	0.9758345941	-0.8360284976	-0.7397901273	-1.28515103	-1.004916165	0.5360519029	0.180479793	0.5196717259	-0.7853677032	0.06271707573	0.678193572	-1.003615485	1.648017774	0.1948980965	0.0001081856894	-1.35048797e-05
0.236111111	-0.1368017911	-0.1648504726	-0.3425395532	1.174410642	1.061784095	-0.1004740861	0.2186393535	0.1690996255	0.2431413112	0.1560429463	0.1560429463	-0.1275442944	-0.1449290016	8.026867476e-07	0.2073166005	-0.1652952419	-0.153802444	0.1654000158	0.1654000158	-0.01124365402	-0.1261158695	9.479084098e-06	0.2449237968	0.9772656608	-0.8373623794	-0.7400321798	-1.284240121	-1.005781823	0.5348508529	0.1806553935	0.5194275283	-0.7854204742	0.06276975724	0.6782731156	-1.003840152	1.647867138	0.1948658187	0.0001048673394	-2.157784755e-05
0.238888889	-0.1365047447	-0.1647396666	-0.3430352274	1.174474016	1.062012356	-0.1007100189	0.2183164587	0.1688289934	0.2432080518	0.1561662232	0.1561662232	-0.1276135851	-0.1449677609	3.136422088e-07	0.2071456053	-0.1648978595	-0.1537501436	0.1655426447	0.1655426447	-0.01101307757	-0.1260328135	1.074488469e-05	0.2449992717	0.9787900774	-0.8387029744	-0.7402596769	-1.283311676	-1.006662606	0.5335631613	0.1807488791	0.5193797571	-0.7854362068	0.06282055325	0.6783783384	-1.004038511	1.647735762	0.1948997888	0.0001006088732	-3.041067268e-05
0.241666667	-0.1362251127	-0.1646907136	-0.3435849994	1.174533785	1.062206479	-0.100941676	0.2179539508	0.1686542985	0.243357141	0.1562543147	0.1562543147	-0.1276214311	-0.1449964185	-2.509161986e-07	0.2069383931	-0.1645903613	-0.1538102385	0.1656672242	0.1656672242	-0.01077046822	-0.1260204397	1.153549271e-05	0.2449962169	0.9804219858	-0.8399661131	-0.7404457088	-1.282313862	-1.007627209	0.5321060297	0.1806894775	0.5196307087	-0.785363659	0.06286865776	0.6785020959	-1.004194551	1.647587856	0.1950355329	9.109570603e-05	-3.69266623e-05
0.244444444	-0.1359626835	-0.1646841718	-0.3441771723	1.174587219	1.062360394	-0.1011711467	0.2175726148	0.1685506636	0.2436062542	0.156327416	0.156327416	-0.1275718602	-0.1450092503	-7.999189052e-07	0.2067078429	-0.1643484383	-0.1539922093	0.1657692128	0.1657692128	-0.01053897463	-0.1260666942	1.166225308e-05	0.2449175519	0.9821367357	-0.8411642511	-0.7405972942	-1.281239759	-1.008688251	0.5305264416	0.1805092223	0.5200827318	-0.7851877726	0.06291063832	0.6786438651	-1.004321716	1.647414058	0.1952337105	7.610365514e-05	-4.00067044e-05
0.247222222	-0.1357234709	-0.164673336	-0.3447771816	1.174632353	1.062465673	-0.1014042523	0.2172197	0.1684558047	0.2439238424	0.1564210238	0.1564210238	-0.1275099013	-0.1450101522	-1.168392571e-06	0.2064925732	-0.1641089572	-0.1542460964	0.1658490074	0.1658490074	-0.01034771915	-0.1261161123	1.141253076e-05	0.2448192219	0.9838799022	-0.842384607	-0.7407527334	-1.280116435	-1.009815558	0.5289742775	0.1803076655	0.520489858	-0.7849187278	0.06294105926	0.6788082781	-1.004455942	1.647225222	0.1953973712	5.861652652e-05	-4.012326997e-05
